<?xml version="1.0" standalone="no"?><!DOCTYPE svg PUBLIC "-//W3C//DTD SVG 1.1//EN" "http://www.w3.org/Graphics/SVG/1.1/DTD/svg11.dtd"><svg t="1780889779022" class="icon" viewBox="0 0 1024 1024" version="1.1" xmlns="http://www.w3.org/2000/svg" p-id="15350" xmlns:xlink="http://www.w3.org/1999/xlink" width="256" height="256"><path d="M738.304 85.333333c82.304 0 148.010667 68.949333 152.149333 154.112l0.213334 8.533334v400c0 86.186667-63.061333 157.909333-144.213334 162.474666l-8.149333 0.213334h-18.346667A170.752 170.752 0 0 1 554.666667 938.666667H298.666667a170.666667 170.666667 0 0 1-170.666667-170.666667v-341.333333a170.666667 170.666667 0 0 1 165.333333-170.581334v-8.106666c0-86.144 63.061333-157.866667 144.213334-162.432L445.696 85.333333h292.608zM554.666667 341.333333H298.666667a85.333333 85.333333 0 0 0-85.12 78.933334L213.333333 426.666667v341.333333a85.333333 85.333333 0 0 0 78.933334 85.12L298.666667 853.333333h256a85.333333 85.333333 0 0 0 85.12-78.933333L640 768v-341.333333a85.333333 85.333333 0 0 0-78.933333-85.12L554.666667 341.333333z m183.637333-170.666666h-292.608c-34.218667 0-63.744 30.336-66.773333 70.528l-0.256 6.826666V256H554.666667a170.666667 170.666667 0 0 1 170.666666 170.666667v298.666666h12.970667c34.218667 0 63.744-30.336 66.773333-70.528l0.256-6.826666V248.021333c0-41.258667-27.733333-73.770667-61.397333-77.056L738.304 170.666667z" fill="#2c2c2c" p-id="15351"></path></svg>