<?xml version="1.0" standalone="no"?><!DOCTYPE svg PUBLIC "-//W3C//DTD SVG 1.1//EN" "http://www.w3.org/Graphics/SVG/1.1/DTD/svg11.dtd"><svg t="1780889639232" class="icon" viewBox="0 0 1024 1024" version="1.1" xmlns="http://www.w3.org/2000/svg" p-id="14477" xmlns:xlink="http://www.w3.org/1999/xlink" width="256" height="256"><path d="M512 938.666667C276.352 938.666667 85.333333 747.648 85.333333 512S276.352 85.333333 512 85.333333s426.666667 191.018667 426.666667 426.666667-191.018667 426.666667-426.666667 426.666667z m0-85.333334a341.333333 341.333333 0 1 0 0-682.666666 341.333333 341.333333 0 0 0 0 682.666666z m178.517333-162.816a42.666667 42.666667 0 0 1-60.330666 0L333.482667 393.813333A42.666667 42.666667 0 1 1 393.813333 333.525333l296.704 296.661334a42.666667 42.666667 0 0 1 0 60.330666z" fill="#2c2c2c" p-id="14478"></path></svg>