<?xml version="1.0" standalone="no"?><!DOCTYPE svg PUBLIC "-//W3C//DTD SVG 1.1//EN" "http://www.w3.org/Graphics/SVG/1.1/DTD/svg11.dtd"><svg t="1780889754015" class="icon" viewBox="0 0 1024 1024" version="1.1" xmlns="http://www.w3.org/2000/svg" p-id="15129" xmlns:xlink="http://www.w3.org/1999/xlink" width="256" height="256"><path d="M582.442667 124.416l92.672 135.594667a85.333333 85.333333 0 0 0 46.421333 33.706666l157.610667 46.250667a85.333333 85.333333 0 0 1 43.52 133.973333l-100.266667 130.090667a85.333333 85.333333 0 0 0-17.792 54.570667l4.736 164.138666a85.333333 85.333333 0 0 1-114.005333 82.816l-154.666667-55.210666a85.333333 85.333333 0 0 0-57.344 0l-154.666667 55.210666a85.333333 85.333333 0 0 1-114.005333-82.773333l4.693333-164.181333a85.333333 85.333333 0 0 0-17.706666-54.613334L101.290667 474.026667a85.333333 85.333333 0 0 1 43.52-133.973334L302.506667 293.674667a85.333333 85.333333 0 0 0 46.421333-33.706667l92.672-135.594667a85.333333 85.333333 0 0 1 140.885333 0z m-105.685334 99.669333l-74.624 109.226667a85.333333 85.333333 0 0 1-46.464 33.749333l-126.890666 37.205334a42.666667 42.666667 0 0 0-21.76 66.986666L287.744 576a85.333333 85.333333 0 0 1 17.749333 54.613333l-3.84 132.181334a42.666667 42.666667 0 0 0 57.002667 41.429333l124.586667-44.458667a85.333333 85.333333 0 0 1 57.386666 0l124.586667 44.458667a42.666667 42.666667 0 0 0 57.002667-41.386667l-3.84-132.224a85.333333 85.333333 0 0 1 17.749333-54.613333l80.810667-104.661333a42.666667 42.666667 0 0 0-21.76-66.986667l-126.933334-37.248a85.333333 85.333333 0 0 1-46.421333-33.706667l-74.666667-109.226666a42.666667 42.666667 0 0 0-70.4 0z m-40.917333 323.669334c2.688 6.997333 5.632 12.586667 8.874667 16.725333a85.290667 85.290667 0 0 0 139.52-7.04c1.749333-2.773333 3.413333-6.144 4.864-10.197333A54.357333 54.357333 0 0 1 640 512a36.864 36.864 0 0 1 35.968 44.970667 124.16 124.16 0 0 1-5.589333 18.773333 170.709333 170.709333 0 0 1-317.610667-2.218667 119.338667 119.338667 0 0 1-4.821333-16.384A36.949333 36.949333 0 0 1 384 512a55.466667 55.466667 0 0 1 51.84 35.754667z" fill="#2c2c2c" p-id="15130"></path></svg>