<?xml version="1.0" standalone="no"?><!DOCTYPE svg PUBLIC "-//W3C//DTD SVG 1.1//EN" "http://www.w3.org/Graphics/SVG/1.1/DTD/svg11.dtd"><svg t="1777973924193" class="icon" viewBox="0 0 1024 1024" version="1.1" xmlns="http://www.w3.org/2000/svg" p-id="1856" xmlns:xlink="http://www.w3.org/1999/xlink" width="256" height="256"><path d="M820 144a60.07 60.07 0 0 1 60 60v616a60.07 60.07 0 0 1-60 60H204a60.07 60.07 0 0 1-60-60V204a60.07 60.07 0 0 1 60-60h616m0-48H204A108 108 0 0 0 96 204v616a108 108 0 0 0 108 108h616a108 108 0 0 0 108-108V204A108 108 0 0 0 820 96z" fill="#ffffff" stroke="#ffffff" stroke-width="8" p-id="1857"></path><path d="M290 696.7h444v60H290zM330 279.3h364v60H330z" fill="#ffffff" stroke="#ffffff" stroke-width="14" stroke-linejoin="round" p-id="1858"></path><path d="M476 279.3h72v350h-72z" fill="#ffffff" stroke="#ffffff" stroke-width="14" stroke-linejoin="round" p-id="1859"></path></svg>