<?xml version="1.0" standalone="no"?><!DOCTYPE svg PUBLIC "-//W3C//DTD SVG 1.1//EN" "http://www.w3.org/Graphics/SVG/1.1/DTD/svg11.dtd"><svg t="1773973915303" class="icon" viewBox="0 0 1024 1024" version="1.1" xmlns="http://www.w3.org/2000/svg" p-id="7826" xmlns:xlink="http://www.w3.org/1999/xlink" width="256" height="256"><path d="M597.333333 128a128 128 0 0 1 128 128v42.666667h42.666667a128 128 0 0 1 128 128v341.333333a128 128 0 0 1-128 128h-341.333333a128 128 0 0 1-128-128v-42.666667H256a128 128 0 0 1-128-128V256a128 128 0 0 1 128-128h341.333333z m170.666667 234.666667h-341.333333a64 64 0 0 0-63.701334 57.856L362.666667 426.666667v341.333333a64 64 0 0 0 57.856 63.701333L426.666667 832h341.333333a64 64 0 0 0 63.701333-57.856L832 768v-341.333333a64 64 0 0 0-57.856-63.701334L768 362.666667z m-170.666667-170.666667H256A64 64 0 0 0 192 256v341.333333A64 64 0 0 0 256 661.333333h42.666667V426.666667a128 128 0 0 1 128-128h234.666666V256A64 64 0 0 0 597.333333 192z" fill="#2c2c2c" p-id="7827"></path></svg>