<?xml version="1.0" standalone="no"?><!DOCTYPE svg PUBLIC "-//W3C//DTD SVG 1.1//EN" "http://www.w3.org/Graphics/SVG/1.1/DTD/svg11.dtd"><svg t="1777973910701" class="icon" viewBox="0 0 1024 1024" version="1.1" xmlns="http://www.w3.org/2000/svg" p-id="1630" xmlns:xlink="http://www.w3.org/1999/xlink" width="256" height="256"><path d="M820 144a60.07 60.07 0 0 1 60 60v616a60.07 60.07 0 0 1-60 60H204a60.07 60.07 0 0 1-60-60V204a60.07 60.07 0 0 1 60-60h616m0-48H204A108 108 0 0 0 96 204v616a108 108 0 0 0 108 108h616a108 108 0 0 0 108-108V204A108 108 0 0 0 820 96z" fill="#ffffff" stroke="#ffffff" stroke-width="8" p-id="1631"></path><path d="M614.93 330.39h204v60h-204zM614.93 500.09h204v60h-204zM204.93 669.78h614v60h-614zM518.44 609.74L477.21 509h-135.3l-41.24 100.72h-41.1l125.84-323h54.76L568 609.74zM463.64 483L403 332.73 341.5 483z" fill="#ffffff" stroke="#ffffff" stroke-width="14" stroke-linejoin="round" p-id="1632"></path></svg>